<?xml version="1.0" encoding="utf-8"?>
<!-- Generator: Adobe Illustrator 18.0.0, SVG Export Plug-In . SVG Version: 6.00 Build 0)  -->
<!DOCTYPE svg PUBLIC "-//W3C//DTD SVG 1.1//EN" "http://www.w3.org/Graphics/SVG/1.1/DTD/svg11.dtd">
<svg version="1.1" id="Layer_1" xmlns="http://www.w3.org/2000/svg" xmlns:xlink="http://www.w3.org/1999/xlink" x="0px" y="0px"
	 viewBox="0 0 64 64" enable-background="new 0 0 64 64" xml:space="preserve">
<g>
	<g>
		<g>
			<path fill="#316CFF" d="M32,0c17.7,0,32,14.3,32,32S49.7,64,32,64S0,49.7,0,32S14.3,0,32,0z"/>
		</g>
	</g>
	<g>
		<g>
			<path fill="#FFFFFF" d="M41.8,10l8.2,7.8v34.8c0,0.8-0.7,1.4-1.5,1.4h-33c-0.8,0-1.5-0.6-1.5-1.4V11.4c0-0.8,0.7-1.4,1.5-1.4
				H41.8z"/>
		</g>
	</g>
	<g>
		<g>
			<polygon fill="#D3D5DD" points="50,17.8 41.8,17.8 41.8,10 			"/>
		</g>
	</g>
	<g>
		<g>
			<path fill="#D3D5DD" d="M45,21c0.5,0,1,0.5,1,1s-0.5,1-1,1H19c-0.6,0-1-0.5-1-1s0.4-1,1-1H45z"/>
		</g>
	</g>
	<g>
		<g>
			<path fill="#D3D5DD" d="M45,26c0.5,0,1,0.5,1,1s-0.5,1-1,1H19c-0.6,0-1-0.5-1-1s0.4-1,1-1H45z"/>
		</g>
	</g>
	<g>
		<g>
			<polygon points="42,40 42,41.5 39.8,41.5 39.8,48 37.9,48 37.9,41.5 35.7,41.5 35.7,40 			"/>
		</g>
	</g>
	<g>
		<g>
			<path fill="#D3D5DD" d="M36.8,16c0.5,0,1,0.5,1,1s-0.5,1-1,1H19c-0.6,0-1-0.5-1-1s0.4-1,1-1H36.8z"/>
		</g>
	</g>
	<g>
		<g>
			<path d="M35.2,41.3c0.1,0.3,0.2,0.7,0.2,1.1c0,0.8-0.3,1.4-0.8,1.8c-0.5,0.4-1.3,0.6-2.3,0.6H31V48h-1.9v-8h3.2
				c0.5,0,0.9,0,1.2,0.1c0.4,0.1,0.7,0.2,1,0.4C34.8,40.7,35.1,41,35.2,41.3z M33.6,42.5c0-0.2,0-0.3-0.1-0.5c0-0.1-0.1-0.2-0.2-0.3
				c-0.2-0.1-0.6-0.2-1.1-0.2H31v1.9h1.2c0.2,0,0.4,0,0.5,0c0.2,0,0.3-0.1,0.4-0.1c0.1-0.1,0.2-0.2,0.3-0.3
				C33.6,42.8,33.6,42.7,33.6,42.5z"/>
		</g>
	</g>
	<g>
		<g>
			<path d="M28.1,41.3c0.2,0.3,0.2,0.7,0.2,1.1c0,0.8-0.3,1.4-0.8,1.8c-0.5,0.4-1.3,0.6-2.3,0.6h-1.3V48H22v-8h3.2
				c0.4,0,0.8,0,1.2,0.1c0.4,0.1,0.7,0.2,1,0.4C27.7,40.7,27.9,41,28.1,41.3z M26.5,42.5c0-0.2,0-0.3-0.1-0.5
				c-0.1-0.1-0.1-0.2-0.2-0.3c-0.2-0.1-0.6-0.2-1.1-0.2h-1.2v1.9H25c0.2,0,0.4,0,0.5,0c0.2,0,0.3-0.1,0.4-0.1
				c0.1-0.1,0.2-0.2,0.3-0.3C26.4,42.8,26.5,42.7,26.5,42.5z"/>
		</g>
	</g>
</g>
</svg>
