<?xml version="1.0" encoding="utf-8"?>
<!-- Generator: Adobe Illustrator 18.0.0, SVG Export Plug-In . SVG Version: 6.00 Build 0)  -->
<!DOCTYPE svg PUBLIC "-//W3C//DTD SVG 1.1//EN" "http://www.w3.org/Graphics/SVG/1.1/DTD/svg11.dtd">
<svg version="1.1" id="Layer_1" xmlns="http://www.w3.org/2000/svg" xmlns:xlink="http://www.w3.org/1999/xlink" x="0px" y="0px"
	 viewBox="0 0 64 64" enable-background="new 0 0 64 64" xml:space="preserve">
<g>
	<g>
		<g>
			<path fill="#316CFF" d="M32,0c17.7,0,32,14.3,32,32S49.7,64,32,64S0,49.7,0,32S14.3,0,32,0z"/>
		</g>
	</g>
	<g>
		<g>
			<path fill="#FFFFFF" d="M41.8,10l8.2,7.8v34.8c0,0.8-0.7,1.4-1.5,1.4h-33c-0.8,0-1.5-0.6-1.5-1.4V11.4c0-0.8,0.7-1.4,1.5-1.4
				H41.8z"/>
		</g>
	</g>
	<g>
		<g>
			<polygon fill="#D3D5DD" points="50,17.8 41.8,17.8 41.8,10 			"/>
		</g>
	</g>
	<g>
		<g>
			<rect x="31.5" y="22" fill="#D3D5DD" width="5" height="3"/>
		</g>
	</g>
	<g>
		<g>
			<rect x="31.5" y="16" fill="#D3D5DD" width="5" height="3"/>
		</g>
	</g>
	<g>
		<g>
			<rect x="31.5" y="10" fill="#D3D5DD" width="5" height="3"/>
		</g>
	</g>
	<g>
		<g>
			<path fill="#D3D5DD" d="M36.5,25l0,4.5c0,2.5-2.2,4.5-5,4.5h0c-1.3,0-2.6-0.5-3.5-1.3c-0.9-0.9-1.4-2-1.4-3.2l0-4.5l5,0L36.5,25z
				 M33.2,29.8l0-0.8l-3.3,0v0.8c0,0.4,0.2,0.8,0.5,1.1c0.3,0.3,0.7,0.4,1.2,0.4C32.4,31.3,33.2,30.6,33.2,29.8z"/>
		</g>
	</g>
	<g>
		<g>
			<path fill="#FFFFFF" d="M33.2,29l0,0.8c0,0.8-0.7,1.5-1.7,1.5c-0.5,0-0.9-0.2-1.2-0.4c-0.3-0.3-0.5-0.7-0.5-1.1V29L33.2,29z"/>
		</g>
	</g>
	<g>
		<g>
			<rect x="26.5" y="19" fill="#D3D5DD" width="5" height="3"/>
		</g>
	</g>
	<g>
		<g>
			<rect x="26.5" y="13" fill="#D3D5DD" width="5" height="3"/>
		</g>
	</g>
	<g>
		<g>
			<path d="M40.8,41.3c0.2,0.3,0.2,0.7,0.2,1.1c0,0.8-0.3,1.4-0.9,1.8c-0.6,0.4-1.4,0.6-2.4,0.6h-1.4V48h-2v-8h3.4
				c0.5,0,0.9,0,1.3,0.1c0.4,0.1,0.8,0.2,1,0.4C40.3,40.7,40.6,41,40.8,41.3z M39,42.5c0-0.2,0-0.3-0.1-0.5c0-0.1-0.1-0.2-0.2-0.3
				c-0.2-0.1-0.6-0.2-1.2-0.2h-1.3v1.9h1.3c0.2,0,0.4,0,0.6,0c0.2,0,0.3-0.1,0.5-0.1c0.1-0.1,0.2-0.2,0.3-0.3
				C39,42.8,39,42.7,39,42.5z"/>
		</g>
	</g>
	<g>
		<g>
			<path fill="#FFFFFF" d="M38.9,42c0.1,0.1,0.1,0.3,0.1,0.5s0,0.4-0.1,0.5c-0.1,0.1-0.2,0.2-0.3,0.3c-0.1,0.1-0.3,0.1-0.5,0.1
				c-0.2,0-0.4,0-0.6,0h-1.3v-1.9h1.3c0.5,0,0.9,0.1,1.2,0.2C38.8,41.8,38.9,41.9,38.9,42z"/>
		</g>
	</g>
	<g>
		<g>
			<rect x="30.9" y="40" width="2" height="8"/>
		</g>
	</g>
	<g>
		<g>
			<polygon points="29.7,46.5 29.7,48 23,48 23,46.6 27.1,41.5 23.3,41.5 23.3,40 29.6,40 29.6,41.3 25.4,46.5 			"/>
		</g>
	</g>
</g>
</svg>
